<?xml version="1.0" standalone="no"?>
<!DOCTYPE svg PUBLIC "-//W3C//DTD SVG 20010904//EN"
 "http://www.w3.org/TR/2001/REC-SVG-20010904/DTD/svg10.dtd">
<svg version="1.0" xmlns="http://www.w3.org/2000/svg"
 width="280.000000pt" height="280.000000pt" viewBox="0 0 280.000000 280.000000"
 preserveAspectRatio="xMidYMid meet">
<metadata>
Created by potrace 1.11, written by Peter Selinger 2001-2013
</metadata>
<g transform="translate(0.000000,280.000000) scale(0.100000,-0.100000)"
fill="#000000" stroke="none">
<path d="M1285 2794 c-347 -35 -630 -168 -871 -408 -209 -210 -339 -456 -391
-740 -23 -127 -22 -371 1 -496 111 -576 545 -1010 1121 -1122 142 -27 348 -29
490 -4 332 58 637 236 844 491 80 99 115 154 176 280 97 200 137 375 137 605
1 235 -50 444 -160 652 -73 140 -133 221 -256 343 -248 247 -576 388 -929 399
-67 2 -140 2 -162 0z m-541 -1031 c2 -10 23 -103 46 -208 51 -234 60 -268 67
-262 3 3 33 113 68 244 l62 238 92 3 c50 1 91 0 91 -2 0 -17 123 -473 130
-479 4 -5 15 27 25 70 9 43 34 152 54 243 l37 165 314 0 c276 0 321 -2 366
-18 49 -17 100 -60 123 -104 15 -30 14 -97 -3 -136 -16 -40 -69 -86 -107 -94
-33 -6 -39 -23 -9 -23 28 0 90 -33 117 -62 69 -74 55 -201 -31 -276 -60 -52
-113 -62 -348 -62 l-208 0 0 340 c0 187 -3 340 -7 340 -5 0 -53 -153 -108
-340 l-100 -341 -100 3 -99 3 -62 201 c-68 226 -73 239 -79 233 -4 -4 -34
-101 -110 -351 l-26 -88 -99 0 -99 0 -25 83 c-13 45 -63 215 -111 377 -47 162
-88 301 -90 308 -3 9 23 12 110 12 100 0 114 -2 119 -17z"/>
<path d="M1830 1540 l0 -80 63 0 c73 0 108 15 121 51 24 68 -25 109 -129 109
l-55 0 0 -80z"/>
<path d="M1838 1334 c-5 -4 -8 -45 -8 -91 l0 -83 68 0 c82 0 133 22 143 63 9
34 -1 65 -29 90 -21 20 -160 36 -174 21z"/>
</g>
</svg>
