<svg width="630" height="212" viewBox="0 0 630 212" fill="none" xmlns="http://www.w3.org/2000/svg">
<path d="M118.419 126H126.621L134.182 99.9756H134.493L142.073 126H150.275L161.664 86.1957H152.471L145.882 113.911H145.532L138.283 86.1957H130.411L123.142 113.853H122.812L116.223 86.1957H107.03L118.419 126ZM169.658 86.1957H161.242V126H169.658V86.1957ZM206.776 100.131C205.669 90.938 198.711 85.6515 189.498 85.6515C178.983 85.6515 170.956 93.0759 170.956 106.098C170.956 119.081 178.847 126.544 189.498 126.544C199.702 126.544 205.863 119.761 206.776 112.434L198.264 112.395C197.467 116.651 194.124 119.1 189.634 119.1C183.59 119.1 179.489 114.611 179.489 106.098C179.489 97.8182 183.531 93.0954 189.692 93.0954C194.299 93.0954 197.622 95.7581 198.264 100.131H206.776ZM207.885 126H216.301V114.688L220.441 109.635L231.344 126H241.412L226.466 104.018L241.237 86.1957H231.15L216.826 103.746H216.301V86.1957H207.885V126ZM240.694 126H267.593V119.061H249.11V109.557H266.135V102.619H249.11V93.1342H267.515V86.1957H240.694V126ZM283.391 126C295.518 126 302.865 118.498 302.865 106.059C302.865 93.659 295.518 86.1957 283.507 86.1957H269.28V126H283.391ZM277.696 118.789V93.4063H283.06C290.523 93.4063 294.469 97.2157 294.469 106.059C294.469 114.941 290.523 118.789 283.041 118.789H277.696ZM304.173 126H321.18C330.12 126 334.882 121.335 334.882 114.999C334.882 109.11 330.664 105.554 326.136 105.34V104.951C330.275 104.018 333.327 101.083 333.327 96.3994C333.327 90.4327 328.895 86.1957 320.111 86.1957H304.173V126ZM312.589 119.12V108.547H319.644C323.687 108.547 326.194 110.879 326.194 114.164C326.194 117.157 324.153 119.12 319.45 119.12H312.589ZM312.589 102.852V92.9982H318.983C322.715 92.9982 324.833 94.9223 324.833 97.7988C324.833 100.947 322.268 102.852 318.828 102.852H312.589ZM335.432 126H360.912V119.061H343.848V86.1957H335.432V126ZM396.587 106.098C396.587 93.0759 388.502 85.6515 377.949 85.6515C367.337 85.6515 359.31 93.0759 359.31 106.098C359.31 119.061 367.337 126.544 377.949 126.544C388.502 126.544 396.587 119.12 396.587 106.098ZM388.055 106.098C388.055 114.533 384.051 119.1 377.949 119.1C371.826 119.1 367.842 114.533 367.842 106.098C367.842 97.6628 371.826 93.0954 377.949 93.0954C384.051 93.0954 388.055 97.6628 388.055 106.098ZM433.016 100.131C431.908 90.938 424.95 85.6515 415.738 85.6515C405.223 85.6515 397.196 93.0759 397.196 106.098C397.196 119.081 405.087 126.544 415.738 126.544C425.941 126.544 432.102 119.761 433.016 112.434L424.503 112.395C423.706 116.651 420.363 119.1 415.874 119.1C409.829 119.1 405.728 114.611 405.728 106.098C405.728 97.8182 409.771 93.0954 415.932 93.0954C420.538 93.0954 423.862 95.7581 424.503 100.131H433.016ZM434.125 126H442.541V114.688L446.68 109.635L457.584 126H467.652L452.706 104.018L467.477 86.1957H457.39L443.065 103.746H442.541V86.1957H434.125V126ZM488.206 97.6433H496.272C496.155 90.5493 490.324 85.6515 481.462 85.6515C472.735 85.6515 466.341 90.4716 466.38 97.7016C466.36 103.571 470.5 106.934 477.225 108.547L481.559 109.635C485.893 110.685 488.303 111.929 488.323 114.611C488.303 117.526 485.543 119.508 481.267 119.508C476.894 119.508 473.746 117.487 473.474 113.503H465.33C465.544 122.113 471.705 126.564 481.365 126.564C491.082 126.564 496.797 121.919 496.816 114.63C496.797 108.003 491.802 104.485 484.882 102.93L481.306 102.075C477.847 101.278 474.951 99.995 475.009 97.138C475.009 94.5725 477.283 92.6872 481.403 92.6872C485.427 92.6872 487.895 94.5142 488.206 97.6433Z" fill="url(#paint0_linear)"/>
<path d="M511.336 97.5403C516.464 97.5403 520.61 93.3944 520.592 88.2843C520.575 83.1742 516.464 79.0283 511.336 79.0283C506.244 79.0283 502.098 83.1742 502.08 88.2843C502.063 93.3944 506.244 97.5403 511.336 97.5403ZM511.336 94.6215C507.839 94.6215 504.982 91.7728 504.999 88.2931C505.008 84.7958 507.857 81.9471 511.336 81.9471C514.842 81.9471 517.665 84.7782 517.674 88.2931C517.691 91.7903 514.851 94.6215 511.336 94.6215ZM506.463 88.2843C506.463 91.0102 508.672 93.2278 511.406 93.2278C513.799 93.2278 515.736 91.5099 516.008 89.2397H513.405C513.221 90.1162 512.414 90.7298 511.406 90.7298C510.057 90.7298 508.952 89.6254 508.952 88.2755C508.952 86.9169 510.057 85.8388 511.406 85.8388C512.414 85.8388 513.3 86.4524 513.475 87.3289H516.078C515.807 85.0587 513.799 83.3408 511.406 83.3408C508.672 83.3408 506.463 85.5583 506.463 88.2843Z" fill="url(#paint1_linear)"/>
<rect x="4.06229" y="4.06229" width="621.568" height="203.821" rx="101.91" stroke="url(#paint2_linear)" stroke-width="8.12458"/>
<defs>
<linearGradient id="paint0_linear" x1="129.804" y1="135.53" x2="150.064" y2="19.5065" gradientUnits="userSpaceOnUse">
<stop stop-color="#091B6A"/>
<stop offset="1" stop-color="#0029FF"/>
</linearGradient>
<linearGradient id="paint1_linear" x1="501.428" y1="101.579" x2="527.253" y2="82.6347" gradientUnits="userSpaceOnUse">
<stop stop-color="#091B6A"/>
<stop offset="1" stop-color="#0029FF"/>
</linearGradient>
<linearGradient id="paint2_linear" x1="38.0439" y1="200.802" x2="157.992" y2="-141.058" gradientUnits="userSpaceOnUse">
<stop stop-color="#091B6A"/>
<stop offset="1" stop-color="#0029FF"/>
</linearGradient>
</defs>
</svg>
