<svg width="630" height="212" viewBox="0 0 630 212" fill="none" xmlns="http://www.w3.org/2000/svg">
<path d="M118.419 126.74H126.621L134.182 100.716H134.493L142.073 126.74H150.275L161.664 86.9359H152.471L145.882 114.651H145.532L138.283 86.9359H130.411L123.142 114.593H122.812L116.223 86.9359H107.03L118.419 126.74ZM169.658 86.9359H161.242V126.74H169.658V86.9359ZM206.776 100.871C205.669 91.6782 198.711 86.3917 189.498 86.3917C178.983 86.3917 170.956 93.8162 170.956 106.838C170.956 119.821 178.847 127.284 189.498 127.284C199.702 127.284 205.863 120.501 206.776 113.174L198.264 113.135C197.467 117.392 194.124 119.841 189.634 119.841C183.59 119.841 179.489 115.351 179.489 106.838C179.489 98.5585 183.531 93.8356 189.692 93.8356C194.299 93.8356 197.622 96.4983 198.264 100.871H206.776ZM207.885 126.74H216.301V115.429L220.441 110.375L231.344 126.74H241.412L226.466 104.758L241.237 86.9359H231.15L216.826 104.486H216.301V86.9359H207.885V126.74ZM240.694 126.74H267.593V119.802H249.11V110.298H266.135V103.359H249.11V93.8745H267.515V86.9359H240.694V126.74ZM283.391 126.74C295.518 126.74 302.865 119.238 302.865 106.799C302.865 94.3992 295.518 86.9359 283.507 86.9359H269.28V126.74H283.391ZM277.696 119.53V94.1466H283.06C290.523 94.1466 294.469 97.956 294.469 106.799C294.469 115.681 290.523 119.53 283.041 119.53H277.696ZM304.173 126.74H321.18C330.12 126.74 334.882 122.076 334.882 115.74C334.882 109.851 330.664 106.294 326.136 106.08V105.691C330.275 104.758 333.327 101.824 333.327 97.1397C333.327 91.1729 328.895 86.9359 320.111 86.9359H304.173V126.74ZM312.589 119.86V109.287H319.644C323.687 109.287 326.194 111.619 326.194 114.904C326.194 117.897 324.153 119.86 319.45 119.86H312.589ZM312.589 103.592V93.7384H318.983C322.715 93.7384 324.833 95.6626 324.833 98.539C324.833 101.688 322.268 103.592 318.828 103.592H312.589ZM335.432 126.74H360.912V119.802H343.848V86.9359H335.432V126.74ZM396.587 106.838C396.587 93.8162 388.502 86.3917 377.949 86.3917C367.337 86.3917 359.31 93.8162 359.31 106.838C359.31 119.802 367.337 127.284 377.949 127.284C388.502 127.284 396.587 119.86 396.587 106.838ZM388.055 106.838C388.055 115.273 384.051 119.841 377.949 119.841C371.826 119.841 367.842 115.273 367.842 106.838C367.842 98.403 371.826 93.8356 377.949 93.8356C384.051 93.8356 388.055 98.403 388.055 106.838ZM433.016 100.871C431.908 91.6782 424.95 86.3917 415.738 86.3917C405.223 86.3917 397.196 93.8162 397.196 106.838C397.196 119.821 405.087 127.284 415.738 127.284C425.941 127.284 432.102 120.501 433.016 113.174L424.503 113.135C423.706 117.392 420.363 119.841 415.874 119.841C409.829 119.841 405.728 115.351 405.728 106.838C405.728 98.5585 409.771 93.8356 415.932 93.8356C420.538 93.8356 423.862 96.4983 424.503 100.871H433.016ZM434.125 126.74H442.541V115.429L446.68 110.375L457.584 126.74H467.652L452.706 104.758L467.477 86.9359H457.39L443.065 104.486H442.541V86.9359H434.125V126.74ZM488.206 98.3836H496.272C496.155 91.2895 490.324 86.3917 481.462 86.3917C472.735 86.3917 466.341 91.2118 466.38 98.4419C466.36 104.311 470.5 107.674 477.225 109.287L481.559 110.375C485.893 111.425 488.303 112.669 488.323 115.351C488.303 118.266 485.543 120.249 481.267 120.249C476.894 120.249 473.746 118.227 473.474 114.243H465.33C465.544 122.853 471.705 127.304 481.365 127.304C491.082 127.304 496.797 122.659 496.816 115.37C496.797 108.743 491.802 105.225 484.882 103.67L481.306 102.815C477.847 102.018 474.951 100.735 475.009 97.8782C475.009 95.3127 477.283 93.4275 481.403 93.4275C485.427 93.4275 487.895 95.2544 488.206 98.3836Z" fill="#ffffff"/>
<path d="M511.336 98.2805C516.464 98.2805 520.61 94.1346 520.592 89.0245C520.575 83.9145 516.464 79.7686 511.336 79.7686C506.244 79.7686 502.098 83.9145 502.08 89.0245C502.063 94.1346 506.244 98.2805 511.336 98.2805ZM511.336 95.3617C507.839 95.3617 504.982 92.513 504.999 89.0333C505.008 85.536 507.857 82.6873 511.336 82.6873C514.842 82.6873 517.665 85.5185 517.673 89.0333C517.691 92.5306 514.851 95.3617 511.336 95.3617ZM506.463 89.0245C506.463 91.7505 508.672 93.968 511.406 93.968C513.799 93.968 515.736 92.2501 516.008 89.9799H513.405C513.221 90.8564 512.414 91.47 511.406 91.47C510.057 91.47 508.952 90.3656 508.952 89.0158C508.952 87.6572 510.057 86.5791 511.406 86.5791C512.414 86.5791 513.3 87.1926 513.475 88.0691H516.078C515.806 85.799 513.799 84.081 511.406 84.081C508.672 84.081 506.463 86.2986 506.463 89.0245Z" fill="#ffffff"/>
<path d="M215.415 174H218.517V172.183H218.657C219.093 173.128 220.046 174.185 221.878 174.185C224.463 174.185 226.48 172.139 226.48 168.342C226.48 164.442 224.374 162.507 221.885 162.507C219.987 162.507 219.078 163.637 218.657 164.56H218.561V158.873H215.415V174ZM218.495 168.327C218.495 166.303 219.352 165.011 220.881 165.011C222.439 165.011 223.266 166.363 223.266 168.327C223.266 170.307 222.424 171.681 220.881 171.681C219.366 171.681 218.495 170.351 218.495 168.327ZM228.264 178.255C230.605 178.255 231.846 177.058 232.489 175.226L236.898 162.669L233.567 162.655L231.196 170.986H231.078L228.729 162.655H225.42L229.49 174.325L229.305 174.805C228.892 175.869 228.101 175.92 226.993 175.581L226.284 177.93C226.735 178.122 227.466 178.255 228.264 178.255ZM245.985 174H249.102L251.975 164.11H252.094L254.974 174H258.091L262.42 158.873H258.926L256.422 169.406H256.289L253.534 158.873H250.542L247.78 169.384H247.654L245.15 158.873H241.657L245.985 174ZM265.458 158.873H262.259V174H265.458V158.873ZM279.564 164.169C279.143 160.675 276.499 158.666 272.998 158.666C269.002 158.666 265.951 161.488 265.951 166.436C265.951 171.37 268.95 174.207 272.998 174.207C276.876 174.207 279.217 171.629 279.564 168.844L276.329 168.83C276.026 170.447 274.756 171.378 273.05 171.378C270.752 171.378 269.194 169.672 269.194 166.436C269.194 163.29 270.73 161.495 273.072 161.495C274.822 161.495 276.085 162.507 276.329 164.169H279.564ZM279.986 174H283.184V169.701L284.757 167.781L288.901 174H292.727L287.047 165.646L292.661 158.873H288.827L283.384 165.543H283.184V158.873H279.986V174ZM292.454 174H302.677V171.363H295.653V167.751H302.123V165.114H295.653V161.51H302.648V158.873H292.454V174ZM308.681 174C313.29 174 316.082 171.149 316.082 166.422C316.082 161.709 313.29 158.873 308.725 158.873H303.318V174H308.681ZM306.517 171.26V161.613H308.555C311.392 161.613 312.891 163.061 312.891 166.422C312.891 169.797 311.392 171.26 308.548 171.26H306.517ZM315.333 161.51H319.964V174H323.125V161.51H327.757V158.873H315.333V161.51ZM327.931 174H338.153V171.363H331.129V167.751H337.599V165.114H331.129V161.51H338.124V158.873H327.931V174ZM338.795 158.873V174H341.897V164.117H342.022L345.937 173.926H348.05L351.964 164.154H352.09V174H355.192V158.873H351.248L347.082 169.036H346.905L342.739 158.873H338.795ZM355.955 174H359.154V169.095H361.842C365.321 169.095 367.345 167.02 367.345 163.999C367.345 160.993 365.358 158.873 361.924 158.873H355.955V174ZM359.154 166.532V161.488H361.31C363.157 161.488 364.051 162.492 364.051 163.999C364.051 165.498 363.157 166.532 361.325 166.532H359.154ZM367.551 174H377.234V171.363H370.749V158.873H367.551V174ZM380.473 174L381.596 170.551H387.055L388.177 174H391.605L386.39 158.873H382.268L377.046 174H380.473ZM382.409 168.054L384.27 162.33H384.388L386.25 168.054H382.409ZM389.109 161.51H393.74V174H396.901V161.51H401.532V158.873H389.109V161.51ZM401.706 174H411.929V171.363H404.905V167.751H411.375V165.114H404.905V161.51H411.9V158.873H401.706V174ZM420.777 163.223H423.842C423.798 160.527 421.582 158.666 418.214 158.666C414.897 158.666 412.467 160.498 412.482 163.245C412.474 165.476 414.048 166.754 416.603 167.367L418.25 167.781C419.898 168.18 420.814 168.652 420.821 169.672C420.814 170.78 419.765 171.533 418.14 171.533C416.478 171.533 415.281 170.765 415.178 169.251H412.083C412.164 172.523 414.506 174.214 418.177 174.214C421.87 174.214 424.041 172.449 424.049 169.679C424.041 167.16 422.143 165.823 419.514 165.232L418.154 164.907C416.84 164.605 415.739 164.117 415.761 163.031C415.761 162.056 416.625 161.34 418.191 161.34C419.72 161.34 420.658 162.034 420.777 163.223Z" fill="white"/>
<rect x="4.06229" y="4.06229" width="621.568" height="203.821" rx="101.91" stroke="url(#paint0_linear)" stroke-width="8.12458"/>
<defs>
<linearGradient id="paint0_linear" x1="-5.96013e-06" y1="45.4992" x2="212.636" y2="414.007" gradientUnits="userSpaceOnUse">
<stop offset="0.0001" stop-color="#63F7EE"/>
<stop offset="0.813324" stop-color="#FCE952"/>
</linearGradient>
</defs>
</svg>
